<svg width="41" height="42" viewBox="0 0 41 42" fill="none" xmlns="http://www.w3.org/2000/svg">
<path d="M37.145 11.0808C35.9202 11.6091 34.5873 11.9894 33.2144 12.1375C34.6398 11.2907 35.7072 9.95287 36.2164 8.37505C34.8788 9.17072 33.4136 9.72866 31.8855 10.0241C31.2469 9.34138 30.4745 8.79748 29.6165 8.42631C28.7585 8.05514 27.8332 7.86465 26.8983 7.86672C23.1159 7.86672 20.0739 10.9327 20.0739 14.6951C20.0739 15.2235 20.1379 15.7518 20.242 16.2602C14.5783 15.964 9.52705 13.2582 6.16887 9.11553C5.55697 10.1607 5.23632 11.3507 5.24026 12.5618C5.24026 14.9313 6.44505 17.0207 8.28224 18.2495C7.19955 18.2068 6.14222 17.9092 5.19624 17.3809V17.4649C5.19624 20.7831 7.54176 23.5329 10.6678 24.1653C10.0808 24.3178 9.47704 24.3957 8.87062 24.3974C8.42633 24.3974 8.00606 24.3534 7.58178 24.2934C8.44634 26.9991 10.964 28.9644 13.9619 29.0284C11.6164 30.8656 8.67849 31.9463 5.48843 31.9463C4.91605 31.9463 4.38771 31.9263 3.83936 31.8623C6.86532 33.8035 10.4556 34.9243 14.3222 34.9243C26.8743 34.9243 33.7428 24.5255 33.7428 15.4997C33.7428 15.2035 33.7428 14.9073 33.7227 14.6111C35.0516 13.6385 36.2164 12.4337 37.145 11.0808Z" fill="#2091F9"/>
</svg>
